# xmcd CD database file
#
# Track frame offsets:
#	150
#	21808
#	151717
#
# Disc length: 3576 seconds
#
# Revision: 0
# Processed by: cddbd v1.5.2PL0 Copyright (c) Steve Scherf et al.
# Submitted via: CDex 1.51
#
DISCID=130df603
DTITLE=Kim Thomas - Reiki With Quan Yin
DYEAR=2002
DGENRE=New Age
TTITLE0=Introduction
TTITLE1=The Buddha Eightfold Path
TTITLE2=Quan Yin and Her Oriental Garden
EXTD=YEAR: 2002
EXTT0=
EXTT1=
EXTT2=
PLAYORDER=
